# xmcd
#
# Track frame offsets:
#       150
#       16847
#       29590
#       46860
#       65277
#       81107
#       98845
#       112342
#       129547
#       150525
#       167727
#
# Disc length: 2390 seconds
#
# Revision: 3
# Processed by: cddbd v1.5.1PL0 Copyright (c) Steve Scherf et al.
# Submitted via: MusiCat 1.1
#
DISCID=8709540b
DTITLE=Pink Anderson - Carolina Blues Man
DYEAR=1961
DGENRE=
TTITLE0=My Baby Left Me This Morning
TTITLE1=Baby, Please Don't Go
TTITLE2=Mama Where Did You Stay Last Night
TTITLE3=Big House Blues
TTITLE4=Meet Me In The Bottom
TTITLE5=Weeping Willow Blues
TTITLE6=Baby I'm Going Away
TTITLE7=Thousand Woman Blues
TTITLE8=I Had My Fun
TTITLE9=Every Day In The Week
TTITLE10=Try Some Of That
EXTD=Prestige/Bluesville\nOBCCD 504 2\n
EXTT0=
EXTT1=
EXTT2=
EXTT3=
EXTT4=
EXTT5=
EXTT6=
EXTT7=
EXTT8=
EXTT9=
EXTT10=
PLAYORDER=
